<mxfile host="app.diagrams.net" modified="2024-03-26T08:05:32.175Z" agent="Mozilla/5.0 (Windows NT 10.0; Win64; x64) AppleWebKit/537.36 (KHTML, like Gecko) Chrome/122.0.0.0 Safari/537.36 Edg/122.0.0.0" etag="Gpj8krACltlK6Pb_5r_D" version="24.1.0" type="device">
  <diagram name="페이지-1" id="ZxSuGaBZ27iAXOixekQ3">
    <mxGraphModel dx="2537" dy="1512" grid="0" gridSize="10" guides="1" tooltips="1" connect="1" arrows="1" fold="1" page="0" pageScale="1" pageWidth="827" pageHeight="1169" math="0" shadow="0">
      <root>
        <mxCell id="0" />
        <mxCell id="1" parent="0" />
        <mxCell id="7NB57l1bS7LqxyseAP4N-2" style="edgeStyle=none;curved=1;rounded=0;orthogonalLoop=1;jettySize=auto;html=1;exitX=0;exitY=1;exitDx=0;exitDy=0;fontSize=12;startSize=8;endSize=8;" edge="1" parent="1">
          <mxGeometry relative="1" as="geometry">
            <mxPoint x="-107" y="208.97000000000003" as="sourcePoint" />
            <mxPoint x="-107" y="208.97000000000003" as="targetPoint" />
          </mxGeometry>
        </mxCell>
        <mxCell id="7NB57l1bS7LqxyseAP4N-17" style="edgeStyle=none;curved=1;rounded=0;orthogonalLoop=1;jettySize=auto;html=1;entryX=0;entryY=0.5;entryDx=0;entryDy=0;fontSize=12;startSize=8;endSize=8;" edge="1" parent="1" source="7NB57l1bS7LqxyseAP4N-4" target="7NB57l1bS7LqxyseAP4N-16">
          <mxGeometry relative="1" as="geometry" />
        </mxCell>
        <mxCell id="7NB57l1bS7LqxyseAP4N-18" style="edgeStyle=none;curved=1;rounded=0;orthogonalLoop=1;jettySize=auto;html=1;entryX=0.5;entryY=0;entryDx=0;entryDy=0;fontSize=12;startSize=8;endSize=8;" edge="1" parent="1" source="7NB57l1bS7LqxyseAP4N-4" target="7NB57l1bS7LqxyseAP4N-15">
          <mxGeometry relative="1" as="geometry" />
        </mxCell>
        <mxCell id="7NB57l1bS7LqxyseAP4N-4" value="앱으로 부터 음성인식 버튼을 눌렀는가?" style="rounded=1;whiteSpace=wrap;html=1;" vertex="1" parent="1">
          <mxGeometry x="-138" y="351" width="138" height="74" as="geometry" />
        </mxCell>
        <mxCell id="7NB57l1bS7LqxyseAP4N-9" style="edgeStyle=none;curved=1;rounded=0;orthogonalLoop=1;jettySize=auto;html=1;exitX=0;exitY=1;exitDx=0;exitDy=0;fontSize=12;startSize=8;endSize=8;" edge="1" parent="1">
          <mxGeometry relative="1" as="geometry">
            <mxPoint x="-107" y="208.97000000000003" as="sourcePoint" />
            <mxPoint x="-107" y="208.97000000000003" as="targetPoint" />
          </mxGeometry>
        </mxCell>
        <mxCell id="7NB57l1bS7LqxyseAP4N-20" style="edgeStyle=none;curved=1;rounded=0;orthogonalLoop=1;jettySize=auto;html=1;entryX=0.5;entryY=0;entryDx=0;entryDy=0;fontSize=12;startSize=8;endSize=8;" edge="1" parent="1" source="7NB57l1bS7LqxyseAP4N-11" target="7NB57l1bS7LqxyseAP4N-28">
          <mxGeometry relative="1" as="geometry">
            <mxPoint x="-69" y="753" as="targetPoint" />
          </mxGeometry>
        </mxCell>
        <mxCell id="7NB57l1bS7LqxyseAP4N-31" style="edgeStyle=none;curved=1;rounded=0;orthogonalLoop=1;jettySize=auto;html=1;entryX=0;entryY=0.5;entryDx=0;entryDy=0;fontSize=12;startSize=8;endSize=8;" edge="1" parent="1" source="7NB57l1bS7LqxyseAP4N-11" target="7NB57l1bS7LqxyseAP4N-30">
          <mxGeometry relative="1" as="geometry" />
        </mxCell>
        <mxCell id="7NB57l1bS7LqxyseAP4N-11" value="&lt;font&gt;감지된 텍스트 값들 중에서 메뉴판에 있는 데이터들 인가?&lt;/font&gt;" style="shape=hexagon;perimeter=hexagonPerimeter2;whiteSpace=wrap;html=1;fixedSize=1;" vertex="1" parent="1">
          <mxGeometry x="-165" y="617" width="192" height="80" as="geometry" />
        </mxCell>
        <mxCell id="7NB57l1bS7LqxyseAP4N-19" style="edgeStyle=none;curved=1;rounded=0;orthogonalLoop=1;jettySize=auto;html=1;entryX=0.5;entryY=0;entryDx=0;entryDy=0;fontSize=12;startSize=8;endSize=8;" edge="1" parent="1" source="7NB57l1bS7LqxyseAP4N-15" target="7NB57l1bS7LqxyseAP4N-11">
          <mxGeometry relative="1" as="geometry" />
        </mxCell>
        <mxCell id="7NB57l1bS7LqxyseAP4N-15" value="&lt;font&gt;음성인식 모델을 실행하여 텍스트 데이터를&amp;nbsp;&lt;/font&gt;&lt;div&gt;입력 받는다.&lt;/div&gt;" style="rounded=1;whiteSpace=wrap;html=1;" vertex="1" parent="1">
          <mxGeometry x="-138" y="477" width="138" height="74" as="geometry" />
        </mxCell>
        <mxCell id="7NB57l1bS7LqxyseAP4N-16" value="실행(X)" style="rounded=1;whiteSpace=wrap;html=1;" vertex="1" parent="1">
          <mxGeometry x="100" y="351" width="138" height="74" as="geometry" />
        </mxCell>
        <mxCell id="7NB57l1bS7LqxyseAP4N-26" value="아니요" style="text;html=1;align=center;verticalAlign=middle;whiteSpace=wrap;rounded=0;fontSize=16;" vertex="1" parent="1">
          <mxGeometry x="-34" y="371" width="162" height="9" as="geometry" />
        </mxCell>
        <mxCell id="7NB57l1bS7LqxyseAP4N-27" value="예" style="text;html=1;align=center;verticalAlign=middle;whiteSpace=wrap;rounded=0;fontSize=16;" vertex="1" parent="1">
          <mxGeometry x="-135" y="452" width="162" height="9" as="geometry" />
        </mxCell>
        <mxCell id="7NB57l1bS7LqxyseAP4N-34" style="edgeStyle=none;curved=1;rounded=0;orthogonalLoop=1;jettySize=auto;html=1;fontSize=12;startSize=8;endSize=8;exitX=0.5;exitY=1;exitDx=0;exitDy=0;" edge="1" parent="1" source="7NB57l1bS7LqxyseAP4N-28">
          <mxGeometry relative="1" as="geometry">
            <mxPoint x="185" y="872" as="targetPoint" />
            <mxPoint x="-67" y="827" as="sourcePoint" />
            <Array as="points">
              <mxPoint x="-85" y="867" />
              <mxPoint x="-24" y="923" />
              <mxPoint x="43" y="936" />
              <mxPoint x="101" y="921" />
            </Array>
          </mxGeometry>
        </mxCell>
        <mxCell id="7NB57l1bS7LqxyseAP4N-28" value="&lt;font&gt;메뉴마다 정해진 특정 코드들을 출력&lt;/font&gt;&lt;div&gt;&lt;font&gt;예) A01,B02,C04&lt;/font&gt;&lt;/div&gt;" style="rounded=1;whiteSpace=wrap;html=1;" vertex="1" parent="1">
          <mxGeometry x="-140" y="748" width="142" height="74" as="geometry" />
        </mxCell>
        <mxCell id="7NB57l1bS7LqxyseAP4N-29" value="예" style="text;html=1;align=center;verticalAlign=middle;whiteSpace=wrap;rounded=0;fontSize=16;" vertex="1" parent="1">
          <mxGeometry x="-78" y="708" width="60" height="30" as="geometry" />
        </mxCell>
        <mxCell id="7NB57l1bS7LqxyseAP4N-33" style="edgeStyle=none;curved=1;rounded=0;orthogonalLoop=1;jettySize=auto;html=1;fontSize=12;startSize=8;endSize=8;" edge="1" parent="1" source="7NB57l1bS7LqxyseAP4N-30">
          <mxGeometry relative="1" as="geometry">
            <mxPoint x="184" y="862" as="targetPoint" />
            <Array as="points">
              <mxPoint x="88" y="812" />
            </Array>
          </mxGeometry>
        </mxCell>
        <mxCell id="7NB57l1bS7LqxyseAP4N-30" value="메뉴판에 없는 메뉴임으로 코드 O를 출력한다." style="rounded=1;whiteSpace=wrap;html=1;" vertex="1" parent="1">
          <mxGeometry x="100" y="620" width="139" height="74" as="geometry" />
        </mxCell>
        <mxCell id="7NB57l1bS7LqxyseAP4N-32" value="아니오" style="text;html=1;align=center;verticalAlign=middle;whiteSpace=wrap;rounded=0;fontSize=16;" vertex="1" parent="1">
          <mxGeometry x="27" y="632" width="60" height="30" as="geometry" />
        </mxCell>
        <mxCell id="7NB57l1bS7LqxyseAP4N-35" value="STM32 보드로 특정 코드 데이터를 보낸다." style="rounded=1;whiteSpace=wrap;html=1;" vertex="1" parent="1">
          <mxGeometry x="195" y="825" width="155" height="88" as="geometry" />
        </mxCell>
        <mxCell id="7NB57l1bS7LqxyseAP4N-37" value="&lt;div style=&quot;font-size: 22px;&quot;&gt;&lt;font style=&quot;font-size: 22px;&quot;&gt;1) 동작설명&lt;/font&gt;&lt;/div&gt;&lt;div style=&quot;font-size: 22px;&quot;&gt;&lt;font style=&quot;font-size: 22px;&quot;&gt;&lt;br style=&quot;font-size: 22px;&quot;&gt;&lt;/font&gt;&lt;/div&gt;&lt;div style=&quot;font-size: 22px;&quot;&gt;&lt;font style=&quot;font-size: 22px;&quot;&gt;&amp;lt;라즈베리파이&amp;gt;&lt;/font&gt;&lt;/div&gt;&lt;div style=&quot;font-size: 22px;&quot;&gt;&lt;font style=&quot;font-size: 22px;&quot;&gt;- 앱으로부터 손님이 음성 버튼을 눌렀는지 신호를 받는다.&lt;/font&gt;&lt;/div&gt;&lt;div style=&quot;font-size: 22px;&quot;&gt;&lt;font style=&quot;font-size: 22px;&quot;&gt;&lt;br style=&quot;font-size: 22px;&quot;&gt;&lt;/font&gt;&lt;/div&gt;&lt;div style=&quot;font-size: 22px;&quot;&gt;&lt;font style=&quot;font-size: 22px;&quot;&gt;- 버튼 신호가 들어오면 음성인식 모델을 돌린다. (버튼을 누른 시점부터 말하면 마이크를통해서 음성이 인식 된다.)&lt;/font&gt;&lt;/div&gt;&lt;div style=&quot;font-size: 22px;&quot;&gt;&lt;font style=&quot;font-size: 22px;&quot;&gt;&lt;br style=&quot;font-size: 22px;&quot;&gt;&lt;/font&gt;&lt;/div&gt;&lt;div style=&quot;font-size: 22px;&quot;&gt;&lt;font style=&quot;font-size: 22px;&quot;&gt;- 음성인식 텍스트들의 값들을 각각 비교하여 특정 단어에 따라서 특정코드를 출력시킨다.&lt;/font&gt;&lt;/div&gt;&lt;div style=&quot;font-size: 22px;&quot;&gt;&lt;font style=&quot;font-size: 22px;&quot;&gt;&amp;nbsp; &amp;nbsp;ex) 짜장면 =A, 두 개 = 02 짜장면 두 개 = A02 을 출력시킨다.&lt;/font&gt;&lt;/div&gt;&lt;div style=&quot;font-size: 22px;&quot;&gt;&lt;font style=&quot;font-size: 22px;&quot;&gt;&lt;br style=&quot;font-size: 22px;&quot;&gt;&lt;/font&gt;&lt;/div&gt;&lt;font style=&quot;font-size: 22px;&quot;&gt;&lt;span style=&quot;background-color: initial; font-size: 22px;&quot;&gt;- 출력된 특정 코드들을 STM32보드로 데이터를 보낸다.(짜장면 두 개인 경우 A01, 탕수육 한개 인 경우 C01)&lt;/span&gt;&lt;/font&gt;" style="text;html=1;align=left;verticalAlign=middle;whiteSpace=wrap;rounded=0;fontSize=22;" vertex="1" parent="1">
          <mxGeometry x="-430" y="-155" width="1464" height="512" as="geometry" />
        </mxCell>
      </root>
    </mxGraphModel>
  </diagram>
</mxfile>
